<?xml version="1.0" standalone="no"?>
<!DOCTYPE svg PUBLIC "-//W3C//DTD SVG 20010904//EN"
 "http://www.w3.org/TR/2001/REC-SVG-20010904/DTD/svg10.dtd">
<svg version="1.0" xmlns="http://www.w3.org/2000/svg"
 width="42.000000pt" height="32.000000pt" viewBox="0 0 42.000000 32.000000"
 preserveAspectRatio="xMidYMid meet">

<g transform="translate(0.000000,32.000000) scale(0.100000,-0.100000)"
fill="#000000" stroke="none">
<path d="M282 290 c-9 -15 -23 -20 -52 -20 -22 0 -40 5 -40 10 0 15 -40 12
-40 -2 0 -7 -5 -5 -11 5 -15 26 -72 22 -103 -7 -22 -20 -26 -31 -24 -77 1 -36
3 -43 5 -21 5 34 13 38 45 21 14 -8 23 -8 31 0 6 6 19 11 29 11 17 0 17 -2 -3
-29 -17 -24 -21 -39 -17 -75 l6 -46 -43 0 c-25 0 -46 5 -49 13 -3 6 -4 -1 -3
-18 l2 -30 98 -6 c53 -3 141 -3 195 0 l97 6 0 120 c0 112 -1 120 -20 124 -11
2 -26 12 -33 22 -17 25 -54 24 -70 -1z m45 4 c-3 -3 -12 -4 -19 -1 -8 3 -5 6
6 6 11 1 17 -2 13 -5z m-207 -14 c0 -5 -13 -10 -30 -10 -16 0 -30 5 -30 10 0
6 14 10 30 10 17 0 30 -4 30 -10z m280 -40 c0 -11 -4 -20 -10 -20 -5 0 -10 7
-10 15 0 10 -11 15 -35 15 -22 0 -35 -5 -35 -13 0 -10 -24 -13 -102 -12 -57 1
-111 5 -121 9 -11 5 -23 4 -30 -3 -17 -17 -37 -13 -37 9 0 19 7 20 190 20 183
0 190 -1 190 -20z m-30 -10 c0 -5 -9 -10 -20 -10 -11 0 -20 5 -20 10 0 6 9 10
20 10 11 0 20 -4 20 -10z m-114 -25 c22 -17 38 -20 29 -5 -4 6 17 10 54 10
l61 0 0 -75 0 -75 -45 0 c-25 0 -45 2 -45 4 0 16 14 36 26 36 22 0 16 31 -11
56 l-24 22 6 -43 c5 -41 3 -47 -30 -80 -47 -47 -86 -48 -133 -1 -46 46 -46 86
0 132 37 37 78 45 112 19z m84 -85 c0 -5 -4 -10 -10 -10 -5 0 -10 5 -10 10 0
6 5 10 10 10 6 0 10 -4 10 -10z m-232 -87 c-16 -2 -40 -2 -55 0 -16 2 -3 4 27
4 30 0 43 -2 28 -4z m260 0 c-16 -2 -40 -2 -55 0 -16 2 -3 4 27 4 30 0 43 -2
28 -4z"/>
<path d="M159 171 c-16 -16 -29 -39 -29 -51 0 -28 52 -80 80 -80 28 0 80 52
80 80 0 12 -13 35 -29 51 -16 16 -39 29 -51 29 -12 0 -35 -13 -51 -29z m96 -6
c14 -13 25 -33 25 -45 0 -27 -43 -70 -70 -70 -27 0 -70 43 -70 70 0 27 43 70
70 70 12 0 32 -11 45 -25z"/>
<path d="M172 158 c-7 -7 -12 -24 -12 -38 0 -33 17 -50 50 -50 33 0 50 17 50
50 0 33 -17 50 -50 50 -14 0 -31 -5 -38 -12z m68 -13 c26 -32 -13 -81 -47 -59
-10 6 -19 19 -21 28 -8 38 43 61 68 31z"/>
<path d="M11 114 c0 -11 3 -14 6 -6 3 7 2 16 -1 19 -3 4 -6 -2 -5 -13z"/>
</g>
</svg>
