<?xml version="1.0" standalone="no"?>
<!DOCTYPE svg PUBLIC "-//W3C//DTD SVG 20010904//EN"
 "http://www.w3.org/TR/2001/REC-SVG-20010904/DTD/svg10.dtd">
<svg version="1.0" xmlns="http://www.w3.org/2000/svg"
 width="34.000000pt" height="23.000000pt" viewBox="0 0 34.000000 23.000000"
 preserveAspectRatio="xMidYMid meet">

<g transform="translate(0.000000,23.000000) scale(0.100000,-0.100000)"
fill="#000000" stroke="none">
<path d="M46 188 c-56 -65 -61 -141 -10 -175 34 -22 75 -8 88 30 12 33 1 57
-32 72 -27 12 -27 21 -2 63 19 31 19 52 0 52 -5 0 -24 -19 -44 -42z"/>
<path d="M257 191 c-57 -63 -62 -144 -12 -177 48 -31 104 8 91 62 -4 14 -18
30 -32 36 -21 10 -24 16 -19 37 4 14 13 34 22 43 14 16 11 38 -6 38 -5 0 -25
-18 -44 -39z"/>
</g>
</svg>
