<?xml version="1.0" standalone="no"?>
<!DOCTYPE svg PUBLIC "-//W3C//DTD SVG 20010904//EN"
 "http://www.w3.org/TR/2001/REC-SVG-20010904/DTD/svg10.dtd">
<svg version="1.0" xmlns="http://www.w3.org/2000/svg"
 width="40.000000pt" height="40.000000pt" viewBox="0 0 40.000000 40.000000"
 preserveAspectRatio="xMidYMid meet">

<g transform="translate(0.000000,40.000000) scale(0.100000,-0.100000)"
fill="#000000" stroke="none">
<path d="M107 394 c-4 -4 -6 -73 -5 -153 l2 -146 6 145 c4 127 7 145 23 148 9
2 17 -1 17 -7 0 -6 21 -11 50 -11 29 0 50 5 50 11 0 6 8 9 18 7 10 -2 19 -16
24 -38 l6 -35 -1 40 -2 40 -90 3 c-50 1 -94 0 -98 -4z m116 -11 c-13 -2 -33
-2 -45 0 -13 2 -3 4 22 4 25 0 35 -2 23 -4z"/>
<path d="M290 160 l-5 -145 -85 0 -85 0 -7 35 -6 35 1 -40 2 -40 93 -3 c70 -2
94 0 97 11 3 7 4 76 3 152 l-3 140 -5 -145z"/>
<path d="M183 33 c9 -2 25 -2 35 0 9 3 1 5 -18 5 -19 0 -27 -2 -17 -5z"/>
</g>
</svg>
