<?xml version="1.0" standalone="no"?>
<!DOCTYPE svg PUBLIC "-//W3C//DTD SVG 20010904//EN"
 "http://www.w3.org/TR/2001/REC-SVG-20010904/DTD/svg10.dtd">
<svg version="1.0" xmlns="http://www.w3.org/2000/svg"
 width="42.000000pt" height="42.000000pt" viewBox="0 0 42.000000 42.000000"
 preserveAspectRatio="xMidYMid meet">

<g transform="translate(0.000000,42.000000) scale(0.100000,-0.100000)"
fill="#000000" stroke="none">
<path d="M285 370 l-39 -40 -93 0 -93 0 0 30 c0 18 -5 30 -13 30 -32 0 -37
-24 -37 -165 0 -122 2 -144 18 -158 20 -18 11 -17 114 -17 64 0 79 -3 70 -12
-24 -24 -10 -28 93 -28 l105 0 0 106 c0 90 -2 105 -15 100 -12 -4 -15 5 -15
54 0 55 -2 60 -22 60 -20 0 -20 1 -4 19 14 15 15 24 6 40 -16 30 -31 26 -75
-19z m65 3 c0 -13 -3 -13 -15 -3 -8 7 -12 16 -9 21 8 13 24 1 24 -18z m-290
-118 l5 60 78 3 c71 3 95 -6 67 -23 -5 -3 -10 -11 -10 -18 0 -6 20 9 45 33 35
35 48 41 57 32 18 -18 -100 -136 -119 -120 -10 8 -11 14 -3 22 19 19 10 29
-10 11 -11 -10 -20 -24 -20 -32 0 -7 -9 -22 -20 -33 l-20 -20 88 2 c57 1 69 3
36 5 l-51 4 72 69 c44 43 80 70 93 70 20 0 22 -5 22 -62 0 -61 -1 -63 -47
-110 -26 -26 -43 -48 -37 -48 5 0 30 20 54 45 49 50 60 55 60 25 0 -11 -5 -20
-11 -20 -8 0 -8 -5 1 -15 10 -12 10 -15 -1 -15 -11 0 -11 -2 1 -10 13 -9 13
-11 0 -20 -12 -8 -12 -10 -1 -10 10 0 11 -3 2 -14 -9 -11 -9 -15 0 -18 7 -2 9
-10 5 -16 -8 -13 -166 -18 -166 -5 0 4 12 20 27 35 15 15 22 28 15 28 -6 0
-14 -5 -17 -10 -4 -6 -53 -10 -115 -10 -93 0 -109 2 -115 17 -4 12 1 24 14 35
13 10 20 27 20 45 l-2 28 -4 -27 c-2 -16 -11 -28 -19 -28 -19 0 -21 209 -1
229 10 10 13 -6 17 -81 5 -89 6 -90 10 -33z m265 104 c11 -17 -1 -21 -15 -4
-8 9 -8 15 -2 15 6 0 14 -5 17 -11z m-150 -149 c3 -5 1 -10 -4 -10 -6 0 -11 5
-11 10 0 6 2 10 4 10 3 0 8 -4 11 -10z"/>
<path d="M323 93 c-18 -19 -33 -37 -33 -39 0 -2 18 -4 40 -4 l40 0 0 40 c0 22
-3 39 -7 39 -5 -1 -23 -17 -40 -36z m27 -13 c0 -11 -7 -20 -15 -20 -18 0 -19
12 -3 28 16 16 18 15 18 -8z"/>
</g>
</svg>
